<?xml version="1.0" encoding="utf-8"?><!-- Uploaded to: SVG Repo, www.svgrepo.com, Generator: SVG Repo Mixer Tools -->
<svg fill="#000000" width="800px" height="800px" viewBox="-0.79 0 110 110" xmlns="http://www.w3.org/2000/svg">
  <path id="_0203-coffee-love" data-name="0203-coffee-love" d="M548.037,407.519c-1.642-.845-3.67-1.3-5.053-2.408-1.915-.572-3.227-1.749-4.813-2.647a32.5,32.5,0,0,1-7.461-7.22c-4.258-5.609-6.806-12.928-7.942-21.659a73.105,73.105,0,0,1,.241-14.2c.27-2.216.533-4.44.962-6.5.631-1.776.927-3.886,2.166-5.054,4.907-1.508,10.936-1.9,17.086-2.165,4.315-.278,8.928-.26,13.54-.243,1.83.007,3.66.013,5.473,0,.389.068.415-.226.722-.24,8.86.123,17.623.346,26.23.722,8.214.69,17.005.8,24.307,2.407,1.176,2.192,1.544,5.194,1.684,8.423.247.212.761.13,1.321.049a2.274,2.274,0,0,1,1.807.192,22.543,22.543,0,0,1,3.61.24c.547.5,1.594.491,2.166.962.748.215,1.121.806,1.925.963.813,1.032,1.8,1.889,2.647,2.888a24.515,24.515,0,0,1,1.925,14.44c-1.307,2.543-2.543,5.157-4.572,6.979-1.584,2.265-4.062,3.639-6.5,5.053-1.38.227-2.5.706-3.85.962a16.27,16.27,0,0,1-6.258-.723,6.521,6.521,0,0,0-1.445,2.409c-.7.5-.954,1.451-1.444,2.165-2.319,2.253-4.3,4.846-6.737,6.979-2.4,2.177-5.019,4.125-7.461,6.257-2.388,1.1-4.627,2.591-7.22,3.37-.246.072-.455-.039-.482.239-3.714.456-7.331,1.01-11.069,1.445q-.9.022-1.772.021A72.012,72.012,0,0,1,548.037,407.519Zm-16.6-55.831c-1.5,4.2-1.467,9.923-1.444,15.641a51.016,51.016,0,0,0,2.4,14.68c.188.054.281.2.242.482,1.006,2.042,2.448,3.648,3.369,5.775.614.91,1.113,1.936,1.684,2.889a15.9,15.9,0,0,1,1.925,2.885c1.6,1.368,3,2.939,4.573,4.333,1.042.162,1.293,1.113,2.407,1.2.3.9,1.789.617,2.165,1.444,2.627.664,4.794,1.785,7.7,2.165a3.257,3.257,0,0,0,1.925.482,4.777,4.777,0,0,0,2.165.481c1.331.354,2.916.454,4.333.723h8.9a12.293,12.293,0,0,1,3.794-.377,14.676,14.676,0,0,0,3.909-.346c2.7-.831,4.777-2.28,7.7-2.886,1.452-1.355,3.384-2.231,4.813-3.609a27.417,27.417,0,0,0,4.333-4.092,38.141,38.141,0,0,0,6.738-10.107c3.883-7.348,4.989-17.472,4.572-29.12a116.14,116.14,0,0,0-18.29-1.924c-3.079-.292-6.3-.44-9.625-.482-2.85-.358-7.339-.093-9.386-.481-13.677.04-27.265-.011-40.43-.482A.657.657,0,0,0,531.433,351.688Zm80.618,31.044a6.227,6.227,0,0,0,4.332-.24c1.424-.262,2.1-1.272,3.37-1.686,1.865-1.985,3.8-3.9,4.332-7.219a6.481,6.481,0,0,0-.723-4.09c-1.343-1.247-3.955-1.228-6.566-1.207-.542,0-1.085.008-1.616,0C614.757,373.726,613.27,378.093,612.051,382.731Zm-43.8,7.7c-.1-.072-.149-.431-.242-.481a4.286,4.286,0,0,1-1.684-1.205,11.6,11.6,0,0,1-3.128-2.4,63.437,63.437,0,0,1-6.258-5.053c-1.112-1.616-2.144-3.313-3.128-5.054a21.23,21.23,0,0,1-.721-6.256c.379-.423.32-1.283.481-1.926a15.5,15.5,0,0,1,2.406-2.646,5.254,5.254,0,0,0,1.925-.724c3.284-.316,5.382.554,7.7,1.2,1.422.742,2.2,2.134,3.85,2.647,2.87-1.3,5.215-3.127,8.662-3.85.39.068.414-.228.723-.239a17.469,17.469,0,0,1,5.536.48,10.1,10.1,0,0,1,3.85,4.332c.32,2.887-.66,4.477-1.2,6.5-2.129,3.165-5.624,4.964-7.942,7.943-1.041.321-1.509,1.218-2.407,1.684-.365.917-1.486,1.081-1.925,1.925-1.954.693-2.246,3.048-4.573,3.369a4.332,4.332,0,0,0-.76-.009c-.12.007-.235.013-.347.013A1.259,1.259,0,0,1,568.253,390.432Zm2.165-48.612a.942.942,0,0,0-.722-.24c-2.076-2.279.6-4.828.961-7.46a9.267,9.267,0,0,0-.481-3.612c-.534-.828-.662-2.064-1.444-2.646a28.461,28.461,0,0,0-1.2-2.888c-.573-.791-.616-2.111-1.2-2.888-.148-1.536-.292-3.075-.482-4.572.3-1.948.138-4.355.722-6.016.305-1.943,1.205-3.289,1.686-5.054.823-.618,1.035-1.854,1.924-2.406.517-.928,1.5-1.39,2.167-2.167.5.1.637-.166.962-.239h2.165a10.011,10.011,0,0,1-1.685,3.61c-.327,2.88-1.494,4.922-1.925,7.7V319.2c.877,4.5,3.47,7.277,4.572,11.55a33.3,33.3,0,0,1-.239,5.537,7.576,7.576,0,0,0-.962,2.406c-1.241,1.246-1.789,3.183-4.092,3.37q-.051,0-.1,0A.963.963,0,0,1,570.418,341.82Zm-10.828-4.814c-1.45-2.562-3.758-4.263-5.777-6.257a5.142,5.142,0,0,0-1.2-1.924c.021-.341.04-.682-.241-.722a13.36,13.36,0,0,1,4.813-11.792c.5.1.638-.167.963-.24.342-.022.682-.041.722.24.845-.212.25.623,0,.722-.126.355-.355.606-.482.962-.391.572-.541,1.384-.962,1.925a26.334,26.334,0,0,0,0,6.5c1.646,2.847,4.671,4.314,5.294,8.183a13.3,13.3,0,0,1-.481,4.572,4.165,4.165,0,0,1-2.646,1.2Zm27.914,2.649c-.482-.511.341-1.074.482-1.686a13.982,13.982,0,0,0,.722-1.683,22.845,22.845,0,0,0-.481-5.295c-.875-2.015-2.148-3.629-2.888-5.776-.193-2.679.5-4.472,2.407-5.054h.482a9.075,9.075,0,0,0,.961,2.648,57.277,57.277,0,0,1,3.851,5.774,2.161,2.161,0,0,0,.482,1.687,9.132,9.132,0,0,0,.241,2.646,5.822,5.822,0,0,1-5.313,6.97A2.032,2.032,0,0,1,587.5,339.655Z" transform="translate(-522.528 -301.631)"/>
</svg>